<svg xmlns="http://www.w3.org/2000/svg" viewBox="0 0 32 32">
<title>Asset 2</title><g id="Layer_2" data-name="Layer 2">
<g id="svg2"><g id="background"><rect width="32" height="32" style="fill:none"/></g>
<g id="book_sans"><path d="M26,0V2H24V4h2V32H2a1.959,1.959,0,0,1-2-2V3A2.824,2.824,0,0,1,1.556.354,3.384,3.384,0,0,1,3,0H26M3,4H22V2H3c0,.006-.032,0-.149.019a1.513,1.513,0,0,0-.4.125C2.2,2.314,2.035,2.353,2,3c.015.5.134.609.272.743a1.271,1.271,0,0,0,.579.239A.871.871,0,0,0,3,4M4,30H24V6H4V30" style="#303030"/>
</g></g></g></svg>